<?xml version="1.0" encoding="UTF-8" standalone="yes"?>
<!-- 3 cols x 2 rows of apricity-laser patches in a 29.4 x 19.6 cm sheet.
     Each patch is 33x33 units = 9.8 x 9.8 cm. 1 unit = 2.97 mm.
     Hole diameter = 0.9 unit = 2.67 mm. -->
<svg width="29.4cm" height="19.6cm" viewBox="0 0 99 66" version="1.1" xmlns="http://www.w3.org/2000/svg">
	<defs>
	<g id="patch">
		<rect x="0" y="0" width="33" height="33" fill="#ffffff"/>
		<rect x="0.05" y="0.05" width="32.9" height="32.9" rx="0.5" ry="0.5" fill="none" stroke="#ff0000" stroke-width="0.05"/>
		<g id="Pattern" transform="translate(6,6)">
			<rect x="0" y="0" width="1" height="1" fill="#000000"/>
			<rect x="1" y="0" width="1" height="1" fill="#000000"/>
			<rect x="2" y="0" width="1" height="1" fill="#000000"/>
			<rect x="3" y="0" width="1" height="1" fill="#000000"/>
			<rect x="4" y="0" width="1" height="1" fill="#000000"/>
			<rect x="5" y="0" width="1" height="1" fill="#000000"/>
			<rect x="6" y="0" width="1" height="1" fill="#000000"/>
			<rect x="8" y="0" width="1" height="1" fill="#000000"/>
			<rect x="9" y="0" width="1" height="1" fill="#000000"/>
			<rect x="10" y="0" width="1" height="1" fill="#000000"/>
			<rect x="12" y="0" width="1" height="1" fill="#000000"/>
			<rect x="14" y="0" width="1" height="1" fill="#000000"/>
			<rect x="15" y="0" width="1" height="1" fill="#000000"/>
			<rect x="16" y="0" width="1" height="1" fill="#000000"/>
			<rect x="17" y="0" width="1" height="1" fill="#000000"/>
			<rect x="18" y="0" width="1" height="1" fill="#000000"/>
			<rect x="19" y="0" width="1" height="1" fill="#000000"/>
			<rect x="20" y="0" width="1" height="1" fill="#000000"/>
			<rect x="0" y="1" width="1" height="1" fill="#000000"/>
			<rect x="6" y="1" width="1" height="1" fill="#000000"/>
			<rect x="8" y="1" width="1" height="1" fill="#000000"/>
			<rect x="10" y="1" width="1" height="1" fill="#000000"/>
			<rect x="12" y="1" width="1" height="1" fill="#000000"/>
			<rect x="14" y="1" width="1" height="1" fill="#000000"/>
			<rect x="20" y="1" width="1" height="1" fill="#000000"/>
			<rect x="0" y="2" width="1" height="1" fill="#000000"/>
			<rect x="2" y="2" width="1" height="1" fill="#000000"/>
			<rect x="3" y="2" width="1" height="1" fill="#000000"/>
			<rect x="4" y="2" width="1" height="1" fill="#000000"/>
			<rect x="6" y="2" width="1" height="1" fill="#000000"/>
			<rect x="8" y="2" width="1" height="1" fill="#000000"/>
			<rect x="11" y="2" width="1" height="1" fill="#000000"/>
			<rect x="14" y="2" width="1" height="1" fill="#000000"/>
			<rect x="16" y="2" width="1" height="1" fill="#000000"/>
			<rect x="17" y="2" width="1" height="1" fill="#000000"/>
			<rect x="18" y="2" width="1" height="1" fill="#000000"/>
			<rect x="20" y="2" width="1" height="1" fill="#000000"/>
			<rect x="0" y="3" width="1" height="1" fill="#000000"/>
			<rect x="2" y="3" width="1" height="1" fill="#000000"/>
			<rect x="3" y="3" width="1" height="1" fill="#000000"/>
			<rect x="4" y="3" width="1" height="1" fill="#000000"/>
			<rect x="6" y="3" width="1" height="1" fill="#000000"/>
			<rect x="8" y="3" width="1" height="1" fill="#000000"/>
			<rect x="9" y="3" width="1" height="1" fill="#000000"/>
			<rect x="10" y="3" width="1" height="1" fill="#000000"/>
			<rect x="11" y="3" width="1" height="1" fill="#000000"/>
			<rect x="14" y="3" width="1" height="1" fill="#000000"/>
			<rect x="16" y="3" width="1" height="1" fill="#000000"/>
			<rect x="17" y="3" width="1" height="1" fill="#000000"/>
			<rect x="18" y="3" width="1" height="1" fill="#000000"/>
			<rect x="20" y="3" width="1" height="1" fill="#000000"/>
			<rect x="0" y="4" width="1" height="1" fill="#000000"/>
			<rect x="2" y="4" width="1" height="1" fill="#000000"/>
			<rect x="3" y="4" width="1" height="1" fill="#000000"/>
			<rect x="4" y="4" width="1" height="1" fill="#000000"/>
			<rect x="6" y="4" width="1" height="1" fill="#000000"/>
			<rect x="11" y="4" width="1" height="1" fill="#000000"/>
			<rect x="12" y="4" width="1" height="1" fill="#000000"/>
			<rect x="14" y="4" width="1" height="1" fill="#000000"/>
			<rect x="16" y="4" width="1" height="1" fill="#000000"/>
			<rect x="17" y="4" width="1" height="1" fill="#000000"/>
			<rect x="18" y="4" width="1" height="1" fill="#000000"/>
			<rect x="20" y="4" width="1" height="1" fill="#000000"/>
			<rect x="0" y="5" width="1" height="1" fill="#000000"/>
			<rect x="6" y="5" width="1" height="1" fill="#000000"/>
			<rect x="8" y="5" width="1" height="1" fill="#000000"/>
			<rect x="9" y="5" width="1" height="1" fill="#000000"/>
			<rect x="12" y="5" width="1" height="1" fill="#000000"/>
			<rect x="14" y="5" width="1" height="1" fill="#000000"/>
			<rect x="20" y="5" width="1" height="1" fill="#000000"/>
			<rect x="0" y="6" width="1" height="1" fill="#000000"/>
			<rect x="1" y="6" width="1" height="1" fill="#000000"/>
			<rect x="2" y="6" width="1" height="1" fill="#000000"/>
			<rect x="3" y="6" width="1" height="1" fill="#000000"/>
			<rect x="4" y="6" width="1" height="1" fill="#000000"/>
			<rect x="5" y="6" width="1" height="1" fill="#000000"/>
			<rect x="6" y="6" width="1" height="1" fill="#000000"/>
			<rect x="8" y="6" width="1" height="1" fill="#000000"/>
			<rect x="10" y="6" width="1" height="1" fill="#000000"/>
			<rect x="12" y="6" width="1" height="1" fill="#000000"/>
			<rect x="14" y="6" width="1" height="1" fill="#000000"/>
			<rect x="15" y="6" width="1" height="1" fill="#000000"/>
			<rect x="16" y="6" width="1" height="1" fill="#000000"/>
			<rect x="17" y="6" width="1" height="1" fill="#000000"/>
			<rect x="18" y="6" width="1" height="1" fill="#000000"/>
			<rect x="19" y="6" width="1" height="1" fill="#000000"/>
			<rect x="20" y="6" width="1" height="1" fill="#000000"/>
			<rect x="9" y="7" width="1" height="1" fill="#000000"/>
			<rect x="10" y="7" width="1" height="1" fill="#000000"/>
			<rect x="12" y="7" width="1" height="1" fill="#000000"/>
			<rect x="0" y="8" width="1" height="1" fill="#000000"/>
			<rect x="1" y="8" width="1" height="1" fill="#000000"/>
			<rect x="4" y="8" width="1" height="1" fill="#000000"/>
			<rect x="5" y="8" width="1" height="1" fill="#000000"/>
			<rect x="6" y="8" width="1" height="1" fill="#000000"/>
			<rect x="9" y="8" width="1" height="1" fill="#000000"/>
			<rect x="11" y="8" width="1" height="1" fill="#000000"/>
			<rect x="15" y="8" width="1" height="1" fill="#000000"/>
			<rect x="17" y="8" width="1" height="1" fill="#000000"/>
			<rect x="18" y="8" width="1" height="1" fill="#000000"/>
			<rect x="19" y="8" width="1" height="1" fill="#000000"/>
			<rect x="20" y="8" width="1" height="1" fill="#000000"/>
			<rect x="0" y="9" width="1" height="1" fill="#000000"/>
			<rect x="1" y="9" width="1" height="1" fill="#000000"/>
			<rect x="2" y="9" width="1" height="1" fill="#000000"/>
			<rect x="3" y="9" width="1" height="1" fill="#000000"/>
			<rect x="4" y="9" width="1" height="1" fill="#000000"/>
			<rect x="5" y="9" width="1" height="1" fill="#000000"/>
			<rect x="8" y="9" width="1" height="1" fill="#000000"/>
			<rect x="9" y="9" width="1" height="1" fill="#000000"/>
			<rect x="12" y="9" width="1" height="1" fill="#000000"/>
			<rect x="13" y="9" width="1" height="1" fill="#000000"/>
			<rect x="15" y="9" width="1" height="1" fill="#000000"/>
			<rect x="19" y="9" width="1" height="1" fill="#000000"/>
			<rect x="20" y="9" width="1" height="1" fill="#000000"/>
			<rect x="2" y="10" width="1" height="1" fill="#000000"/>
			<rect x="4" y="10" width="1" height="1" fill="#000000"/>
			<rect x="6" y="10" width="1" height="1" fill="#000000"/>
			<rect x="9" y="10" width="1" height="1" fill="#000000"/>
			<rect x="10" y="10" width="1" height="1" fill="#000000"/>
			<rect x="11" y="10" width="1" height="1" fill="#000000"/>
			<rect x="12" y="10" width="1" height="1" fill="#000000"/>
			<rect x="13" y="10" width="1" height="1" fill="#000000"/>
			<rect x="15" y="10" width="1" height="1" fill="#000000"/>
			<rect x="19" y="10" width="1" height="1" fill="#000000"/>
			<rect x="1" y="11" width="1" height="1" fill="#000000"/>
			<rect x="7" y="11" width="1" height="1" fill="#000000"/>
			<rect x="8" y="11" width="1" height="1" fill="#000000"/>
			<rect x="10" y="11" width="1" height="1" fill="#000000"/>
			<rect x="11" y="11" width="1" height="1" fill="#000000"/>
			<rect x="12" y="11" width="1" height="1" fill="#000000"/>
			<rect x="13" y="11" width="1" height="1" fill="#000000"/>
			<rect x="14" y="11" width="1" height="1" fill="#000000"/>
			<rect x="15" y="11" width="1" height="1" fill="#000000"/>
			<rect x="17" y="11" width="1" height="1" fill="#000000"/>
			<rect x="18" y="11" width="1" height="1" fill="#000000"/>
			<rect x="0" y="12" width="1" height="1" fill="#000000"/>
			<rect x="5" y="12" width="1" height="1" fill="#000000"/>
			<rect x="6" y="12" width="1" height="1" fill="#000000"/>
			<rect x="7" y="12" width="1" height="1" fill="#000000"/>
			<rect x="8" y="12" width="1" height="1" fill="#000000"/>
			<rect x="10" y="12" width="1" height="1" fill="#000000"/>
			<rect x="11" y="12" width="1" height="1" fill="#000000"/>
			<rect x="12" y="12" width="1" height="1" fill="#000000"/>
			<rect x="16" y="12" width="1" height="1" fill="#000000"/>
			<rect x="19" y="12" width="1" height="1" fill="#000000"/>
			<rect x="20" y="12" width="1" height="1" fill="#000000"/>
			<rect x="8" y="13" width="1" height="1" fill="#000000"/>
			<rect x="15" y="13" width="1" height="1" fill="#000000"/>
			<rect x="16" y="13" width="1" height="1" fill="#000000"/>
			<rect x="17" y="13" width="1" height="1" fill="#000000"/>
			<rect x="19" y="13" width="1" height="1" fill="#000000"/>
			<rect x="0" y="14" width="1" height="1" fill="#000000"/>
			<rect x="1" y="14" width="1" height="1" fill="#000000"/>
			<rect x="2" y="14" width="1" height="1" fill="#000000"/>
			<rect x="3" y="14" width="1" height="1" fill="#000000"/>
			<rect x="4" y="14" width="1" height="1" fill="#000000"/>
			<rect x="5" y="14" width="1" height="1" fill="#000000"/>
			<rect x="6" y="14" width="1" height="1" fill="#000000"/>
			<rect x="9" y="14" width="1" height="1" fill="#000000"/>
			<rect x="10" y="14" width="1" height="1" fill="#000000"/>
			<rect x="14" y="14" width="1" height="1" fill="#000000"/>
			<rect x="16" y="14" width="1" height="1" fill="#000000"/>
			<rect x="17" y="14" width="1" height="1" fill="#000000"/>
			<rect x="19" y="14" width="1" height="1" fill="#000000"/>
			<rect x="20" y="14" width="1" height="1" fill="#000000"/>
			<rect x="0" y="15" width="1" height="1" fill="#000000"/>
			<rect x="6" y="15" width="1" height="1" fill="#000000"/>
			<rect x="8" y="15" width="1" height="1" fill="#000000"/>
			<rect x="9" y="15" width="1" height="1" fill="#000000"/>
			<rect x="12" y="15" width="1" height="1" fill="#000000"/>
			<rect x="13" y="15" width="1" height="1" fill="#000000"/>
			<rect x="18" y="15" width="1" height="1" fill="#000000"/>
			<rect x="20" y="15" width="1" height="1" fill="#000000"/>
			<rect x="0" y="16" width="1" height="1" fill="#000000"/>
			<rect x="2" y="16" width="1" height="1" fill="#000000"/>
			<rect x="3" y="16" width="1" height="1" fill="#000000"/>
			<rect x="4" y="16" width="1" height="1" fill="#000000"/>
			<rect x="6" y="16" width="1" height="1" fill="#000000"/>
			<rect x="8" y="16" width="1" height="1" fill="#000000"/>
			<rect x="9" y="16" width="1" height="1" fill="#000000"/>
			<rect x="10" y="16" width="1" height="1" fill="#000000"/>
			<rect x="12" y="16" width="1" height="1" fill="#000000"/>
			<rect x="13" y="16" width="1" height="1" fill="#000000"/>
			<rect x="15" y="16" width="1" height="1" fill="#000000"/>
			<rect x="16" y="16" width="1" height="1" fill="#000000"/>
			<rect x="17" y="16" width="1" height="1" fill="#000000"/>
			<rect x="18" y="16" width="1" height="1" fill="#000000"/>
			<rect x="19" y="16" width="1" height="1" fill="#000000"/>
			<rect x="0" y="17" width="1" height="1" fill="#000000"/>
			<rect x="2" y="17" width="1" height="1" fill="#000000"/>
			<rect x="3" y="17" width="1" height="1" fill="#000000"/>
			<rect x="4" y="17" width="1" height="1" fill="#000000"/>
			<rect x="6" y="17" width="1" height="1" fill="#000000"/>
			<rect x="10" y="17" width="1" height="1" fill="#000000"/>
			<rect x="11" y="17" width="1" height="1" fill="#000000"/>
			<rect x="14" y="17" width="1" height="1" fill="#000000"/>
			<rect x="15" y="17" width="1" height="1" fill="#000000"/>
			<rect x="18" y="17" width="1" height="1" fill="#000000"/>
			<rect x="19" y="17" width="1" height="1" fill="#000000"/>
			<rect x="20" y="17" width="1" height="1" fill="#000000"/>
			<rect x="0" y="18" width="1" height="1" fill="#000000"/>
			<rect x="2" y="18" width="1" height="1" fill="#000000"/>
			<rect x="3" y="18" width="1" height="1" fill="#000000"/>
			<rect x="4" y="18" width="1" height="1" fill="#000000"/>
			<rect x="6" y="18" width="1" height="1" fill="#000000"/>
			<rect x="11" y="18" width="1" height="1" fill="#000000"/>
			<rect x="14" y="18" width="1" height="1" fill="#000000"/>
			<rect x="16" y="18" width="1" height="1" fill="#000000"/>
			<rect x="0" y="19" width="1" height="1" fill="#000000"/>
			<rect x="6" y="19" width="1" height="1" fill="#000000"/>
			<rect x="8" y="19" width="1" height="1" fill="#000000"/>
			<rect x="9" y="19" width="1" height="1" fill="#000000"/>
			<rect x="10" y="19" width="1" height="1" fill="#000000"/>
			<rect x="11" y="19" width="1" height="1" fill="#000000"/>
			<rect x="13" y="19" width="1" height="1" fill="#000000"/>
			<rect x="16" y="19" width="1" height="1" fill="#000000"/>
			<rect x="18" y="19" width="1" height="1" fill="#000000"/>
			<rect x="20" y="19" width="1" height="1" fill="#000000"/>
			<rect x="0" y="20" width="1" height="1" fill="#000000"/>
			<rect x="1" y="20" width="1" height="1" fill="#000000"/>
			<rect x="2" y="20" width="1" height="1" fill="#000000"/>
			<rect x="3" y="20" width="1" height="1" fill="#000000"/>
			<rect x="4" y="20" width="1" height="1" fill="#000000"/>
			<rect x="5" y="20" width="1" height="1" fill="#000000"/>
			<rect x="6" y="20" width="1" height="1" fill="#000000"/>
			<rect x="8" y="20" width="1" height="1" fill="#000000"/>
			<rect x="10" y="20" width="1" height="1" fill="#000000"/>
			<rect x="12" y="20" width="1" height="1" fill="#000000"/>
			<rect x="13" y="20" width="1" height="1" fill="#000000"/>
			<rect x="14" y="20" width="1" height="1" fill="#000000"/>
			<rect x="16" y="20" width="1" height="1" fill="#000000"/>
			<rect x="19" y="20" width="1" height="1" fill="#000000"/>
			<rect x="20" y="20" width="1" height="1" fill="#000000"/>
		</g>
		<g id="Holes" fill="none" stroke="#ff0000" stroke-width="0.05">
			<circle cx="1.5" cy="1.5" r="0.45"/>
			<circle cx="6.5" cy="1.5" r="0.45"/>
			<circle cx="11.5" cy="1.5" r="0.45"/>
			<circle cx="16.5" cy="1.5" r="0.45"/>
			<circle cx="21.5" cy="1.5" r="0.45"/>
			<circle cx="26.5" cy="1.5" r="0.45"/>
			<circle cx="31.5" cy="1.5" r="0.45"/>
			<circle cx="1.5" cy="31.5" r="0.45"/>
			<circle cx="6.5" cy="31.5" r="0.45"/>
			<circle cx="11.5" cy="31.5" r="0.45"/>
			<circle cx="16.5" cy="31.5" r="0.45"/>
			<circle cx="21.5" cy="31.5" r="0.45"/>
			<circle cx="26.5" cy="31.5" r="0.45"/>
			<circle cx="31.5" cy="31.5" r="0.45"/>
			<circle cx="1.5" cy="6.5" r="0.45"/>
			<circle cx="1.5" cy="11.5" r="0.45"/>
			<circle cx="1.5" cy="16.5" r="0.45"/>
			<circle cx="1.5" cy="21.5" r="0.45"/>
			<circle cx="1.5" cy="26.5" r="0.45"/>
			<circle cx="31.5" cy="6.5" r="0.45"/>
			<circle cx="31.5" cy="11.5" r="0.45"/>
			<circle cx="31.5" cy="16.5" r="0.45"/>
			<circle cx="31.5" cy="21.5" r="0.45"/>
			<circle cx="31.5" cy="26.5" r="0.45"/>
		</g>
	</g>
	</defs>
	<use href="#patch" x="0" y="0"/>
	<use href="#patch" x="33" y="0"/>
	<use href="#patch" x="66" y="0"/>
	<use href="#patch" x="0" y="33"/>
	<use href="#patch" x="33" y="33"/>
	<use href="#patch" x="66" y="33"/>
</svg>
